<svg xmlns="http://www.w3.org/2000/svg" enable-background="new 0 0 25 25" viewBox="0 0 25 25" id="kaggle">
  <path fill="#DE002A" d="M18.492,25h-2.868c-0.471,0-0.906-0.214-1.225-0.604l-4.071-5.428l-0.212,0.211v4.482c0,0.775-0.556,1.337-1.322,1.337H6.572c-0.766,0-1.322-0.562-1.322-1.337V1.337C5.25,0.562,5.806,0,6.572,0h2.223c0.766,0,1.322,0.562,1.322,1.337v11.228l3.942-4.18c0.439-0.456,0.882-0.55,1.178-0.55h2.964c0.521,0,0.971,0.294,1.174,0.768c0.205,0.476,0.115,1.035-0.223,1.392l-5.394,5.473l5.719,7.45c0.095,0.124,0.16,0.268,0.189,0.42l0.065,0.338c0.027,0.141,0.023,0.286-0.01,0.425C19.621,24.516,19.238,25,18.492,25z M15.852,23h1.168l-5.377-7.005c-0.304-0.396-0.27-0.956,0.081-1.311l4.78-4.849h-1.061L9.845,15.77c-0.281,0.299-0.717,0.396-1.097,0.243c-0.381-0.151-0.631-0.52-0.631-0.929V2H7.25v20.999h0.867v-4.234c0-0.266,0.106-0.521,0.294-0.708l1.321-1.317c0.205-0.204,0.493-0.303,0.778-0.289c0.289,0.021,0.555,0.166,0.729,0.397L15.852,23z M8.795,2h0.01H8.795z"></path>
</svg>
